<svg xmlns="http://www.w3.org/2000/svg" width="68.42pt" height="63.91pt" viewBox="-7.08 0 68.42 63.91">
<path d="M 3.00 53.83 L 51.26 53.83 L 51.26 3.00 L 3.00 3.00 L 3.00 53.83 Z" fill="#ffffff" stroke="#000000" stroke-width="4.00" stroke-linecap="round" stroke-linejoin="round"/>
<path d="M 3.00 46.76 L 14.84 39.55" fill="none" stroke="#000000" stroke-width="4.00" stroke-linecap="round" stroke-linejoin="round"/>
<path d="M 3.00 32.34 L 14.84 39.55" fill="none" stroke="#000000" stroke-width="4.00" stroke-linecap="round" stroke-linejoin="round"/>
<path d="M9.13 24.93 9.14 10.61H12.30Q13.95 10.61 14.56 10.75Q15.59 10.99 16.45 11.72Q17.31 12.44 17.95 13.65Q18.58 14.85 18.87 16.54Q19.17 18.32 18.99 19.83Q18.81 21.34 18.21 22.46Q17.61 23.59 16.84 24.10Q16.08 24.62 15.19 24.80Q14.60 24.93 13.27 24.93ZM11.55 22.63H12.77Q14.11 22.63 14.62 22.44Q15.28 22.21 15.77 21.48Q16.26 20.75 16.49 19.46Q16.72 18.16 16.43 16.46Q16.19 15.06 15.68 14.26Q15.18 13.46 14.52 13.17Q14.04 12.98 12.95 12.98H11.55Z" fill="#000000"/>
<path d="M40.72 24.65Q40.21 24.91 39.63 25.05Q39.06 25.18 38.41 25.18Q36.33 25.18 34.83 23.71Q33.07 21.98 32.61 19.28Q32.30 17.47 32.58 15.51Q32.95 12.99 34.28 11.68Q35.61 10.37 37.65 10.37Q39.77 10.37 41.41 11.98Q43.06 13.59 43.54 16.38Q43.90 18.50 43.49 20.42Q43.08 22.33 42.12 23.50Q43.01 24.40 44.00 25.01L43.17 26.83Q41.93 26.17 40.72 24.65ZM40.38 21.46Q40.92 20.62 41.14 19.20Q41.37 17.78 41.14 16.45Q40.84 14.71 39.93 13.77Q39.02 12.83 37.87 12.83Q36.95 12.83 36.19 13.53Q35.42 14.23 35.04 15.80Q34.67 17.37 34.97 19.10Q35.26 20.82 36.20 21.77Q37.13 22.71 38.28 22.71Q38.82 22.71 39.05 22.64Q39.13 22.61 39.12 22.51Q39.10 22.41 38.68 22.03Q38.14 21.54 37.60 21.32L38.20 19.68Q39.40 20.35 40.38 21.46Z" fill="#000000"/>
<path d="M24.35 49.72H21.93L21.94 35.40H27.16Q28.61 35.40 29.39 35.78Q30.16 36.17 30.75 37.01Q31.34 37.86 31.57 39.16Q31.89 41.07 31.15 42.22Q30.42 43.36 28.72 43.64Q29.30 44.17 29.93 45.16Q31.00 46.82 32.43 49.72H29.84Q29.58 49.11 28.22 46.43Q27.51 45.05 27.03 44.49Q26.67 44.09 26.36 43.94Q26.04 43.79 25.35 43.79H24.35ZM24.35 41.64H25.63Q27.45 41.64 28.05 41.41Q28.65 41.18 28.97 40.57Q29.29 39.95 29.16 39.21Q29.02 38.40 28.42 38.03Q28.07 37.80 27.02 37.80H24.36Z" fill="#000000"/>
<path d="M 3.00 18.00 L -4.08 18.00" fill="none" stroke="#000000" stroke-width="4.00" stroke-linecap="round" stroke-linejoin="round"/>
<path d="M 3.00 39.55 L -4.08 39.55" fill="none" stroke="#000000" stroke-width="4.00" stroke-linecap="round" stroke-linejoin="round"/>
<path d="M 51.26 18.00 L 58.34 18.00" fill="none" stroke="#000000" stroke-width="4.00" stroke-linecap="round" stroke-linejoin="round"/>
<path d="M 27.13 53.83 L 27.13 60.91" fill="none" stroke="#000000" stroke-width="4.00" stroke-linecap="round" stroke-linejoin="round"/>
</svg>
