<svg xmlns="http://www.w3.org/2000/svg" width="37.41pt" height="44.99pt" viewBox="0 0 37.41 44.99">
<path d="M 28.21 22.50 L 34.41 22.50" fill="none" stroke="#000000" stroke-width="2.25" stroke-linecap="round" stroke-linejoin="round"/>
<path d="M 8.67 15.40 L 8.67 3.00" fill="none" stroke="#000000" stroke-width="2.25" stroke-linecap="round" stroke-linejoin="round"/>
<path d="M 8.67 41.99 L 8.67 29.60" fill="none" stroke="#000000" stroke-width="2.25" stroke-linecap="round" stroke-linejoin="round"/>
<path d="M 22.16 33.75 L 22.16 11.35" fill="none" stroke="#000000" stroke-width="2.25" stroke-linecap="round" stroke-linejoin="round"/>
<path d="M 22.04 15.40 L 8.95 15.40" fill="none" stroke="#000000" stroke-width="2.25" stroke-linecap="round" stroke-linejoin="round"/>
<path d="M 21.99 29.60 L 8.67 29.60" fill="none" stroke="#000000" stroke-width="2.25" stroke-linecap="round" stroke-linejoin="round"/>
<path d="M 27.52 30.67 L 27.52 14.43" fill="none" stroke="#000000" stroke-width="2.25" stroke-linecap="round" stroke-linejoin="round"/>
<path d="M 18.46 29.60 L 8.67 29.60" fill="none" stroke="#000000" stroke-width="2.25" stroke-linecap="round" stroke-linejoin="round"/>
<path d="M 8.67 29.60 L 17.67 26.00 L 17.67 33.20 Z" fill="#000000" stroke="none"/>
<path d="M 22.16 22.50 L 3.00 22.50" fill="none" stroke="#000000" stroke-width="2.25" stroke-linecap="round" stroke-linejoin="round"/>
<path d="M 3.00 22.50 L 3.00 36.67" fill="none" stroke="#000000" stroke-width="2.25" stroke-linecap="round" stroke-linejoin="round"/>
<path d="M 8.67 36.67 L 3.00 36.67" fill="none" stroke="#000000" stroke-width="2.25" stroke-linecap="round" stroke-linejoin="round"/>
<path d="M 5.48 36.67 L 5.50 36.36 L 5.54 36.05 L 5.62 35.74 L 5.72 35.45 L 5.86 35.17 L 6.02 34.90 L 6.20 34.65 L 6.41 34.42 L 6.65 34.21 L 6.90 34.02 L 7.17 33.86 L 7.45 33.72 L 7.74 33.62 L 8.05 33.54 L 8.36 33.50 L 8.67 33.48 L 8.98 33.50 L 9.29 33.54 L 9.60 33.62 L 9.89 33.72 L 10.17 33.86 L 10.44 34.02 L 10.69 34.21 L 10.92 34.42 L 11.13 34.65 L 11.32 34.90 L 11.48 35.17 L 11.62 35.45 L 11.72 35.74 L 11.80 36.05 L 11.84 36.36 L 11.86 36.67 L 11.84 36.98 L 11.80 37.29 L 11.72 37.60 L 11.62 37.89 L 11.48 38.17 L 11.32 38.44 L 11.13 38.69 L 10.92 38.93 L 10.69 39.14 L 10.44 39.32 L 10.17 39.48 L 9.89 39.62 L 9.60 39.72 L 9.29 39.80 L 8.98 39.84 L 8.67 39.86 L 8.36 39.84 L 8.05 39.80 L 7.74 39.72 L 7.45 39.62 L 7.17 39.48 L 6.90 39.32 L 6.65 39.14 L 6.41 38.93 L 6.20 38.69 L 6.02 38.44 L 5.86 38.17 L 5.72 37.89 L 5.62 37.60 L 5.54 37.29 L 5.50 36.98 L 5.48 36.67 Z" fill="#000000" stroke="#000000" stroke-width="0.25" stroke-linecap="round" stroke-linejoin="round"/>
</svg>