<svg xmlns="http://www.w3.org/2000/svg" width="70.38pt" height="37.90pt" viewBox="0 0 70.38 37.90">
<path d="M 3.00 6.55 L 5.06 14.26 L 6.80 10.76 L 9.91 31.73 L 10.86 17.11 L 12.30 18.99 L 13.26 12.09 L 16.55 18.25 L 17.50 13.60 L 19.09 28.80 L 19.72 27.71 L 20.65 28.65 L 23.23 8.00 L 24.88 25.99 L 26.04 19.01 L 27.46 31.32 L 29.81 12.21 L 31.26 21.77 L 32.50 20.52 L 33.06 24.01 L 34.51 13.01 L 35.95 29.24 L 37.55 22.91 L 38.09 27.71 L 40.51 11.26 L 41.74 26.08 L 43.81 7.65 L 45.61 25.41 L 46.95 8.14 L 48.39 30.23 L 49.66 12.26 L 50.66 14.12 L 51.45 3.00 L 52.44 18.23 L 53.53 13.34 L 54.66 34.90 L 55.96 17.36 L 57.00 20.52 L 58.01 15.82 L 58.32 16.80 L 59.40 10.94 L 60.73 25.31 L 61.52 11.25 L 62.57 22.09 L 63.39 19.72 L 63.91 24.79 L 65.26 17.55 L 66.10 28.09 L 67.36 18.14" fill="none" stroke="#000000" stroke-width="2.25" stroke-linecap="round" stroke-linejoin="round"/>
</svg>
